<svg xmlns="http://www.w3.org/2000/svg" viewBox="0 0 28.551 28.551" width="512" height="512"><path d="M12.768 3.674v-2.17c0-.828.675-1.504 1.505-1.504.83 0 1.505.676 1.505 1.504v2.17a1.51 1.51 0 0 1-1.505 1.508 1.51 1.51 0 0 1-1.505-1.508zM12.768 27.041v-2.168c0-.828.675-1.506 1.505-1.506.83 0 1.505.678 1.505 1.506v2.168a1.51 1.51 0 0 1-1.505 1.51 1.51 1.51 0 0 1-1.505-1.51zM20.704 7.844a1.51 1.51 0 0 1 0-2.129l1.534-1.533a1.503 1.503 0 0 1 2.13 0c.59.59.59 1.539 0 2.125l-1.534 1.537c-.294.291-.68.439-1.064.439-.386 0-.77-.148-1.066-.439zM4.179 24.367a1.513 1.513 0 0 1 0-2.131l1.535-1.533a1.511 1.511 0 0 1 2.131 0 1.511 1.511 0 0 1 0 2.131l-1.536 1.533c-.292.293-.68.439-1.065.439a1.498 1.498 0 0 1-1.065-.439zM24.875 15.777a1.506 1.506 0 0 1 0-3.01h2.169c.83 0 1.507.678 1.507 1.506 0 .83-.677 1.504-1.507 1.504h-2.169zM1.505 15.777a1.505 1.505 0 0 1 0-3.01h2.169a1.506 1.506 0 0 1 0 3.01H1.505zM22.238 24.367l-1.534-1.537a1.506 1.506 0 0 1 .003-2.127 1.506 1.506 0 0 1 2.127 0l1.534 1.533c.586.59.586 1.545 0 2.131a1.51 1.51 0 0 1-1.065.439 1.504 1.504 0 0 1-1.065-.439zM5.714 7.844L4.179 6.307a1.506 1.506 0 0 1 0-2.125 1.503 1.503 0 0 1 2.13 0l1.536 1.533a1.509 1.509 0 0 1 0 2.129 1.515 1.515 0 0 1-2.131 0z" fill="#2c3e50"/></svg>